# xmcd
#
# Track frame offsets:
#	182
#	17687
#	33377
#	49210
#	60660
#	74065
#	89920
#	106135
#	119830
#	133420
#	149437
#	161307
#	173647
#	188330
#	200760
#	213880
#
# Disc length: 2975 seconds
#
# Revision: 1
# Processed by: cddbd v1.4PL0 Copyright (c) Steve Scherf et al.
# Submitted via: CDmax 2.0
#
DISCID=f30b9d10
DTITLE=Gino Sound Orchestra And Singers - Espana Ole Volume 1
DYEAR=2000
DGENRE=Country
TTITLE0=Amor De Mis Amores
TTITLE1=No Me Hables
TTITLE2=Guantanamera
TTITLE3=El Porompompero
TTITLE4=Porque Te Va
TTITLE5=Bambolero
TTITLE6=Vamos A La Playa
TTITLE7=Maria Isabel
TTITLE8=El Borriquito
TTITLE9=La Cucaracha
TTITLE10=Un Rayo De Sol
TTITLE11=La Bamba
TTITLE12=Amor
TTITLE13=Mulher Rendeira
TTITLE14=La Paloma Blanca
TTITLE15=Espana Cani
EXTD=
EXTT0=
EXTT1=
EXTT2=
EXTT3=
EXTT4=
EXTT5=
EXTT6=
EXTT7=
EXTT8=
EXTT9=
EXTT10=
EXTT11=
EXTT12=
EXTT13=
EXTT14=
EXTT15=
PLAYORDER=
